Coordinates
version=1
nRows=21
nColumns=22
inDegrees=yes

Units are S.I. units (second, meters, Newtons, ...)
If the header above contains a line with 'inDegrees', this indicates whether rotational values are in degrees (yes) or radians (no).

endheader
time	pelvis_tilt	pelvis_list	pelvis_rotation	pelvis_tx	pelvis_ty	pelvis_tz	hip_flexion_r	hip_adduction_r	hip_rotation_r	knee_angle_r	ankle_angle_r	subtalar_angle_r	hip_flexion_l	hip_adduction_l	hip_rotation_l	knee_angle_l	ankle_angle_l	subtalar_angle_l	lumbar_extension	lumbar_bending	lumbar_rotation
      2.54000000	     -4.35762640	     -2.76977345	    -37.28015579	     -0.55059032	      0.93655586	      0.12692439	     -2.75123702	     13.88532233	     14.20998432	    -14.46209501	     15.83751504	     -5.84536605	     30.46095982	     -7.45288617	     11.97304801	    -20.38813328	      9.51585452	      9.55115658	     -7.21065851	      3.27702559	      8.72451537
      2.55000000	     -4.49059611	     -2.68276471	    -37.77249278	     -0.54377529	      0.93496562	      0.13121718	     -2.94187506	     13.86042203	     14.61851511	    -14.94133524	     16.30934835	     -5.89587188	     30.33164057	     -7.53004994	     12.27436211	    -18.28821021	      9.67220931	      9.59781391	     -7.07650462	      3.28421940	      8.76111704
      2.56000000	     -4.53402651	     -2.58078954	    -38.27847620	     -0.53688931	      0.93348210	      0.13555526	     -3.13951483	     13.77984468	     15.01493547	    -15.54376742	     16.71735821	     -5.96685724	     30.20241726	     -7.54274525	     12.23768667	    -16.61613996	      9.83743270	      9.56732700	     -7.01887748	      3.21328247	      8.79894384
      2.57000000	     -4.57524810	     -2.43801460	    -38.75709692	     -0.52989888	      0.93196298	      0.13987871	     -3.28207072	     13.67213589	     15.35733279	    -16.19941788	     17.16001496	     -6.04883127	     30.18350241	     -7.47476254	     12.02204153	    -15.40274109	      9.93769451	      9.53250223	     -6.93107580	      3.10606128	      8.82510119
      2.58000000	     -4.57232435	     -2.26957416	    -39.23295107	     -0.52282004	      0.93051039	      0.14421943	     -3.41122854	     13.51928296	     15.66425227	    -16.91896564	     17.55064389	     -6.13547723	     30.21040549	     -7.31929785	     11.66116300	    -14.64279510	     10.01595199	      9.47129238	     -6.86488335	      2.94664370	      8.84457410
      2.59000000	     -4.53831176	     -2.08324471	    -39.69206336	     -0.51563735	      0.92913089	      0.14859963	     -3.53855334	     13.33652618	     15.94204453	    -17.67212292	     17.89440916	     -6.22354950	     30.27602592	     -7.08365697	     11.25421122	    -14.30482238	     10.03327589	      9.38540011	     -6.80609708	      2.74559392	      8.85902710
      2.60000000	     -4.48639306	     -1.90209808	    -40.13460120	     -0.50836419	      0.92784358	      0.15303091	     -3.66804133	     13.14572836	     16.15538402	    -18.45418245	     18.19965260	     -6.29798552	     30.35215548	     -6.79707700	     10.93390040	    -14.33252369	      9.98597833	      9.28887901	     -6.76259512	      2.53129026	      8.87564600
      2.61000000	     -4.45295086	     -1.69011377	    -40.56755054	     -0.50099140	      0.92661152	      0.15755421	     -3.78203906	     12.93996936	     16.40137533	    -19.20471274	     18.39457100	     -6.40200168	     30.49239828	     -6.46177769	     10.69911004	    -14.70053849	      9.73948834	      8.91833234	     -6.66486970	      2.29749340	      8.88796895
      2.62000000	     -4.38711781	     -1.49453947	    -40.98081265	     -0.49349842	      0.92556300	      0.16219050	     -3.93977659	     12.71573178	     16.59047060	    -19.94603352	     18.53802792	     -6.43644745	     30.58254799	     -6.09109310	     10.61586448	    -15.30342805	      9.41159353	      8.73578599	     -6.59492791	      2.04271562	      8.90843669
      2.63000000	     -4.38113080	     -1.31885730	    -41.35859217	     -0.48591205	      0.92459664	      0.16689389	     -4.06648779	     12.54561236	     16.77201835	    -20.67485319	     18.57135095	     -6.44370166	     30.72028590	     -5.73069081	     10.72937879	    -16.11461625	      8.81033120	      8.08280756	     -6.47700339	      1.84683204	      8.89776808
      2.64000000	     -4.35719772	     -1.13855020	    -41.71984515	     -0.47819557	      0.92384576	      0.17172722	     -4.21401792	     12.34766543	     16.94679873	    -21.38745909	     18.51485417	     -6.40948176	     30.81487344	     -5.34185101	     10.93563426	    -17.02657381	      8.05771616	      7.49568762	     -6.35488298	      1.62386192	      8.88549454
      2.65000000	     -4.35251654	     -0.96652491	    -42.04942577	     -0.47035581	      0.92330828	      0.17668515	     -4.36705686	     12.16024732	     17.12375124	    -22.06319441	     18.30812196	     -6.31116694	     30.90196256	     -4.95367010	     11.24611030	    -18.00347948	      7.11775331	      6.79013749	     -6.20420442	      1.40945895	      8.87164624
      2.66000000	     -4.35292633	     -0.77590613	    -42.36140669	     -0.46243857	      0.92298745	      0.18175840	     -4.47034123	     11.96638482	     17.31609258	    -22.79033613	     17.98820108	     -6.15496561	     30.97699047	     -4.55945456	     11.57400015	    -18.97884101	      6.08944690	      6.10766537	     -6.02348329	      1.17316559	      8.82555608
      2.67000000	     -4.35980802	     -0.59125356	    -42.64597064	     -0.45441768	      0.92291831	      0.18695261	     -4.55358488	     11.78145960	     17.49453629	    -23.53326560	     17.52593659	     -5.90533409	     31.04538126	     -4.18086914	     11.87763885	    -19.96005545	      5.03744143	      5.41886239	     -5.82608219	      0.93492484	      8.78512461
      2.68000000	     -4.35625206	     -0.43216607	    -42.90812116	     -0.44628634	      0.92314837	      0.19225998	     -4.62193430	     11.61094574	     17.63463067	    -24.32549628	     16.89479683	     -5.50019176	     31.07733543	     -3.83473563	     12.09139528	    -20.93096504	      4.04608882	      4.75906720	     -5.64409655	      0.70522243	      8.73727462
      2.69000000	     -4.35722493	     -0.25098792	    -43.15366132	     -0.43811927	      0.92357570	      0.19768037	     -4.57163606	     11.44666830	     17.70001799	    -25.26490748	     16.15478590	     -5.02994873	     31.10164415	     -3.51014296	     12.21100098	    -21.85593338	      3.16422172	      4.32244244	     -5.42999951	      0.44777366	      8.66605297
      2.70000000	     -4.34834122	     -0.07736705	    -43.38974331	     -0.42990925	      0.92425444	      0.20324135	     -4.44314523	     11.30451840	     17.72655620	    -26.33623410	     15.23567170	     -4.43074390	     31.05161790	     -3.22735877	     12.24424359	    -22.68508371	      2.40402812	      4.03878339	     -5.21744881	      0.18094467	      8.55856447
      2.71000000	     -4.34078032	      0.04528981	    -43.61696788	     -0.42166251	      0.92514575	      0.20891186	     -4.23062899	     11.21170481	     17.60095240	    -27.56197402	     14.12912538	     -3.51807141	     30.94026363	     -3.01995668	     12.17302877	    -23.48427251	      1.83142310	      3.81589989	     -5.03375019	     -0.05061259	      8.46828934
      2.72000000	     -4.32675474	      0.15158951	    -43.84277904	     -0.41340413	      0.92621403	      0.21469016	     -3.90285049	     11.14575001	     17.38146568	    -28.96325770	     12.82206635	     -2.39641590	     30.73948546	     -2.86377143	     12.01167748	    -24.16978452	      1.42694658	      3.73805498	     -4.85786881	     -0.27312843	      8.32302727
      2.73000000	     -4.32214658	      0.23378031	    -44.07664152	     -0.40518248	      0.92738739	      0.22051552	     -3.42216416	     11.11315578	     17.01953020	    -30.56854952	     11.32580148	     -1.05044789	     30.47105045	     -2.76444556	     11.79328538	    -24.76465064	      1.15775877	      3.70655904	     -4.69224158	     -0.46553333	      8.17363459
      2.74000000	     -4.32839593	      0.29805243	    -44.31943527	     -0.39702140	      0.92860070	      0.22634017	     -2.76885432	     11.09891102	     16.50249574	    -32.38145374	      9.64509235	      0.55024022	     30.15552789	     -2.70581258	     11.53208360	    -25.29149537	      1.02150236	      3.64880929	     -4.53504815	     -0.62825161	      8.01654017
